<?xml version="1.0" encoding="utf-8"?>
<svg width="800px" height="600px"
     xmlns="http://www.w3.org/2000/svg"
     xmlns:xhtml="http://www.w3.org/1999/xhtml"
     xmlns:xlink="http://www.w3.org/1999/xlink"
     xmlns:a="http://www.adobe.com/svg10-extensions" a:timeline="independent"
     onload="top.load(evt)">

  <defs>
    <clipPath id="gameareaclip">
      <rect x="20" y="20" width="600" height="560"/>
    </clipPath>
    <pattern id="background_pattern" x="0" y="0" width="20" height="20" patternUnits="userSpaceOnUse">
      <rect width="20" height="20" style="fill:grey"/>
    </pattern>
	<clipPath id="effect_clip">
    	<rect x="0" y="0" width="0" height="0">
    	    <animate id="effect" attributeName="x" attributeType="XML"
                         values="400;0" 
                         begin="button.click" dur="1s" fill="freeze"/>
        	<animate attributeName="y" attributeType="XML"
                         values="300;0"
                         begin="effect.begin" dur="1s" fill="freeze"/>
        	<animate attributeName="width" attributeType="XML"
                         values="0;800"
                         begin="effect.begin" dur="1s" fill="freeze"/>
            <animate attributeName="height" attributeType="XML"
                         values="0;600"
                         begin="effect.begin" dur="1s" fill="freeze"/>
            </rect>
        </clipPath>
    <radialGradient id="player_color">
      <stop offset="0.0" style="stop-color:yellow;stop-opacity:1"/>
      <stop offset="0.8" style="stop-color:yellow;stop-opacity:1"/>
      <stop offset="1.0" style="stop-color:orange;stop-opacity:1"/>
    </radialGradient>
    <g id="monster">
      <g>
        <linearGradient id="SVGID_WOLF_1_" gradientUnits="userSpaceOnUse" x1="41.4126" y1="44.51" x2="52.416" y2="44.51">
            <stop  offset="0.4516" style="stop-color:#4F301F"/>
            <stop  offset="0.9946" style="stop-color:#3D2316"/>
        </linearGradient>
        <path fill="url(#SVGID_WOLF_1_)" d="M41.413,38.169c0,0,2.622,3.828,5.208,5.183c1.057,0.554,2.266,3.692,1.259,4.867
            c-1.007,1.175,0.168,2.266-1.678,2.098c-1.846-0.168-4.574,1.678-1.154,2.35c3.42,0.671,3.512,0.336,3.634,0
            s3.898-4.448,3.73-7.469c-0.168-3.021-2.662-9.147-2.799-9.231C49.473,35.884,41.413,38.169,41.413,38.169z"/>
        <radialGradient id="SVGID_WOLF_2_" cx="54.2938" cy="16.6158" r="9.3743" gradientUnits="userSpaceOnUse">
            <stop  offset="0.2688" style="stop-color:#603D26"/>
            <stop  offset="1" style="stop-color:#442818"/>
        </radialGradient>
        <path fill="url(#SVGID_WOLF_2_)" d="M55.824,29.513c0,0,4.126-12.864-1.13-20.559C51.584,4.4,51.87,3.719,51.87,3.719
            s-1.318,2.042-0.188,7.314c0.894,4.17,4.08,8.473,3.326,16.102C54.87,28.534,56.178,28.022,55.824,29.513z">
            <animateTransform dur="1s" attributeName="transform" repeatCount="indefinite" type="rotate" from="0,55,30" to="360,55,30"/> 
        </path>
            <radialGradient id="SVGID_WOLF_3_" cx="51.2234" cy="27.4334" r="28.227" gradientTransform="matrix(0.6685 0 0 0.6685 -1.3059 10.1346)" gradientUnits="userSpaceOnUse">
            <stop  offset="0.2688" style="stop-color:#603D26"/>
            <stop  offset="1" style="stop-color:#442818"/>
        </radialGradient>
        <path fill="url(#SVGID_WOLF_3_)" d="M37.372,19.467c-3.422,0-6.641,0.44-9.45,1.216c-3.959-1.099-4.814-3.336-8.022-3.336
            c-5.859,0-13.427,5.115-10.609,9.617c3.445,5.505,5.36,10.12,10.609,9.617c0.941-0.09,1.858-0.123,2.73-0.333
            c3.629,2.054,8.88,3.354,14.742,3.354c10.948,0,19.822-4.507,19.822-10.067S48.319,19.467,37.372,19.467z"/>
        
            <radialGradient id="SVGID_WOLF_4_" cx="36.0258" cy="50.5172" r="17.0273" gradientTransform="matrix(0.6685 0 0 1.337 -1.3059 -23.6371)" gradientUnits="userSpaceOnUse">
            <stop  offset="0.2688" style="stop-color:#603D26"/>
            <stop  offset="1" style="stop-color:#442818"/>
        </radialGradient>
        <path fill="url(#SVGID_WOLF_4_)" d="M30.172,35.557c0-3.286-2.919-5.95-6.52-5.95c-3.601,0-6.52,2.664-6.52,5.95
            c0,1.004,0.275,1.948,0.756,2.778c0,0,2.046,4.347,2.549,6.193c0.504,1.846,0.336,4.616,0,6.965s-0.721,3.021-1.116,3.021
            s-5.43,0.587-3.5,3.692c0,0,4.951-0.168,6.462-2.014c1.311-1.602,5.651-12.802,6.833-17.396
            C29.782,37.863,30.172,36.752,30.172,35.557z"/>
        
            <radialGradient id="SVGID_WOLF_5_" cx="76.1639" cy="44.0144" r="20.4959" gradientTransform="matrix(0.6685 0 0 0.6685 -1.3059 10.1346)" gradientUnits="userSpaceOnUse">
            <stop  offset="0.2688" style="stop-color:#603D26"/>
            <stop  offset="1" style="stop-color:#442818"/>
        </radialGradient>
        <path fill="url(#SVGID_WOLF_5_)" d="M58.294,43.436c-0.275-0.586-2.281-5.053-1.61-6.648c0-0.001,0-0.001,0-0.002
            c0.7-1.311,1.098-2.811,1.098-4.406c0-5.132-4.114-9.293-9.189-9.293s-9.189,4.161-9.189,9.293c0,2.648,1.101,5.032,2.859,6.725
            c0.408,0.82,2.482,3.974,10.652,5.17c3.441,0.504,4.028,6.965,3.608,7.72s-6.192,4.196,1.771,4.028
            C58.294,56.024,61.725,50.737,58.294,43.436z"/>
    </g>
    <g>
        <g>
            
                <radialGradient id="SVGID_WOLF_6_" cx="30.2049" cy="0.6213" r="5.4555" gradientTransform="matrix(0.6685 0 0 0.6685 -1.3059 10.1346)" gradientUnits="userSpaceOnUse">
                <stop  offset="0.2688" style="stop-color:#603D26"/>
                <stop  offset="1" style="stop-color:#442818"/>
            </radialGradient>
            <path fill="url(#SVGID_WOLF_6_)" d="M18.707,14.197c1.438,0.808,2.762,0.128,2.941-1.512l0.487-4.456
                c0.179-1.64-0.744-2.159-2.052-1.153l-3.553,2.733c-1.308,1.006-1.201,2.491,0.237,3.299L18.707,14.197z"/>
        </g>
        <g>
            
                <radialGradient id="SVGID_WOLF_7_" cx="14.2756" cy="-0.9029" r="5.4136" gradientTransform="matrix(0.6685 0 0 0.6685 -1.3059 10.1346)" gradientUnits="userSpaceOnUse">
                <stop  offset="0.2688" style="stop-color:#603D26"/>
                <stop  offset="1" style="stop-color:#442818"/>
            </radialGradient>
            <path fill="url(#SVGID_WOLF_7_)" d="M8.144,13.283c-1.484,0.72-2.765-0.039-2.845-1.687L5.08,7.119C5,5.471,5.953,5.009,7.198,6.092
                l3.382,2.942c1.245,1.083,1.049,2.558-0.436,3.279L8.144,13.283z"/>
        </g>
        
            <radialGradient id="SVGID_WOLF_8_" cx="21.1653" cy="14.0173" r="17.0499" gradientTransform="matrix(0.6685 0 0 0.6685 -1.3059 10.1346)" gradientUnits="userSpaceOnUse">
            <stop  offset="0.2688" style="stop-color:#603D26"/>
            <stop  offset="1" style="stop-color:#442818"/>
        </radialGradient>
        <path fill="url(#SVGID_WOLF_8_)" d="M25.368,19.505c0,2.377-5.607,10.147-12.525,10.147S0.319,22.248,0.319,19.505
            S5.926,9.358,12.844,9.358S25.368,17.677,25.368,19.505z"/>
        
            <radialGradient id="SVGID_WOLF_9_" cx="21.1653" cy="20.4123" r="14.6314" gradientTransform="matrix(0.6685 0 0 0.6685 -1.3059 10.1346)" gradientUnits="userSpaceOnUse">
            <stop  offset="0.414" style="stop-color:#999999"/>
            <stop  offset="1" style="stop-color:#847B79"/>
        </radialGradient>
        <path fill="url(#SVGID_WOLF_9_)" d="M25.245,18.921c-0.576-0.387-1.03-0.534-1.03-0.534c-7.169-1.413-13.679,7.661-13.679,7.661
            c-3.66-7.276-7.575-8.28-9.811-8.125c-0.256,0.608-0.406,1.156-0.406,1.583c0,2.743,5.608,10.147,12.525,10.147
            c6.917,0,12.525-7.771,12.525-10.147C25.368,19.356,25.318,19.15,25.245,18.921z"/>
        <g>
            
                <radialGradient id="SVGID_WOLF_10_" cx="17.9007" cy="22.4022" r="2.8693" gradientTransform="matrix(0.6685 0 0 0.6685 -1.3059 10.1346)" gradientUnits="userSpaceOnUse">
                <stop  offset="0.2151" style="stop-color:#303030"/>
                <stop  offset="1" style="stop-color:#000000"/>
            </radialGradient>
            <path fill="url(#SVGID_WOLF_10_)" d="M11.174,23.529c1.639,0.194,2.101,1.318,1.027,2.496s-2.581,1-3.349-0.397
                s-0.056-2.381,1.582-2.187L11.174,23.529z"/>
        </g>
        <path fill="#0F0F0F" d="M8.033,17.268c-0.344,0.076-0.648,0.307-0.796,0.656c-0.246,0.577,0.023,1.245,0.6,1.49
            c0.553,0.235,1.184-0.004,1.453-0.532C9.102,18.478,8.724,17.92,8.033,17.268z"/>
        <path fill="#0F0F0F" d="M14.834,17.908c0.344,0.076,0.648,0.307,0.796,0.656c0.246,0.577-0.023,1.245-0.6,1.49
            c-0.553,0.235-1.184-0.004-1.453-0.531C13.765,19.118,14.143,18.56,14.834,17.908z"/>
        
            <radialGradient id="SVGID_WOLF_11_" cx="18.2372" cy="28.1289" r="4.9128" gradientTransform="matrix(0.6685 0 0 0.6685 -1.3059 10.1346)" gradientUnits="userSpaceOnUse">
            <stop  offset="0.1613" style="stop-color:#303030"/>
            <stop  offset="0.4194" style="stop-color:#161616"/>
        </radialGradient>
        <path fill="url(#SVGID_WOLF_11_)" d="M10.873,27.155c-1.174-0.104-2.249-0.406-3.153-0.839c-0.343,0.621-0.641,1.223-0.663,1.477
            c-0.092,1.038,2.34,3.662,3.526,3.767c1.238,0.11,4.058-2.217,4.135-3.087c0.023-0.261-0.197-0.917-0.473-1.621
            C13.251,27.143,12.095,27.263,10.873,27.155z"/>
        <path fill="#0F0F0F" d="M9.29,17.908"/>
        
            <radialGradient id="SVGID_WOLF_12_" cx="17.624" cy="28.1289" r="3.0575" gradientTransform="matrix(0.6685 0 0 0.6685 -1.3059 10.1346)" gradientUnits="userSpaceOnUse">
            <stop  offset="0.1613" style="stop-color:#B24B4B"/>
            <stop  offset="0.7688" style="stop-color:#822929"/>
        </radialGradient>
        <path fill="url(#SVGID_WOLF_12_)" d="M10.477,27.688c-0.692-0.061-1.323-0.261-1.853-0.553c-0.208,0.433-0.389,0.853-0.405,1.029
            c-0.064,0.72,1.347,2.515,2.046,2.577c0.729,0.065,2.414-1.573,2.468-2.177c0.016-0.181-0.108-0.634-0.264-1.119
            C11.88,27.657,11.197,27.751,10.477,27.688z"/>
        <g>
            <path fill="#FFFFFF" d="M12.688,28.697l-0.242-1.112l-0.394,1.99l-0.221-0.577l-0.251,0.896l-0.176-0.46l-0.267,0.954
                C11.814,29.93,12.535,29.151,12.688,28.697z"/>
            <path fill="#FFFFFF" d="M9.341,29.926L9.13,29.092l-0.249,0.503c0.445,0.59,1.013,1.114,1.384,1.147
                c0.047,0.004,0.107-0.017,0.161-0.026l-0.257-1.017l-0.367,0.741l-0.242-0.959L9.341,29.926z"/>
            <path fill="#FFFFFF" d="M10.434,30.715c0.184-0.033,0.397-0.128,0.628-0.276l-0.318-0.831L10.434,30.715z"/>
            <path fill="#FFFFFF" d="M8.853,29.555l-0.214-2.162l-0.362,1.126C8.373,28.827,8.589,29.199,8.853,29.555z"/>
        </g>
        <circle fill="#FFFFFF" cx="7.858" cy="17.908" r="0.241"/>
        <circle fill="#FFFFFF" cx="14.96" cy="18.387" r="0.241"/>
    </g>
    </g>
    <g id="bullet">
      <circle cx="5" cy="5" r="5" style="fill:red"/>
      <circle cx="6" cy="3" r="1" style="fill:pink"/>
    </g>
    <g id="monsterBullet">
      <circle cx="5" cy="5" r="5" style="fill:blue"/>
      <circle cx="6" cy="3" r="1" style="fill:pink"/>
    </g>
	<g id="exit">
    <rect x="0" y="0" height="20" width="40" style="fill:blue;fill-opacity:1;stroke:black;stroke-width:0.5;stroke-miterlimit:4;stroke-dasharray:none;stroke-opacity:1" />
    <text x="20" y="15" style="fill:red;font-size:16px;font-weight:bold;text-anchor:middle">Exit</text>
	<rect x="" y="20" width="20" height="30" style="fill:white;fill-opacity:1;stroke:black;stroke-width:0.5;stroke-miterlimit:4;stroke-dasharray:none;stroke-opacity:1" />
      <rect y="20" x="20" height="30" width="20" style="fill:white;fill-opacity:1;stroke:black;stroke-width:0.5;stroke-miterlimit:4;stroke-dasharray:none;stroke-opacity:1" />
	</g>
    <g id="player_character">
    <g>
        <radialGradient id="SVGID_RAB_1_" cx="2.3737" cy="30.4561" r="2.0816" gradientUnits="userSpaceOnUse">
            <stop  offset="0.3495" style="stop-color:#988E8E"/>
            <stop  offset="0.9892" style="stop-color:#6D6666"/>
        </radialGradient>
        <ellipse fill="url(#SVGID_RAB_1_)" cx="2.374" cy="30.456" rx="2.124" ry="2.039"/>
        <path fill="#988E8E" d="M34.738,23.463"/>
        <radialGradient id="SVGID_RAB_2_" cx="15.8415" cy="25.4836" r="12.1543" gradientUnits="userSpaceOnUse">
            <stop  offset="0.586" style="stop-color:#988E8E"/>
            <stop  offset="0.9892" style="stop-color:#6D6666"/>
        </radialGradient>
        <path fill="url(#SVGID_RAB_2_)" d="M12.482,35.44c8.199-3.786,13.443-4.04,15.341-3.971c1.002-1.574,1.571-3.368,1.571-5.274
            c0-6.232-6.068-11.284-13.553-11.284S2.289,19.963,2.289,26.195c0,4.168,2.716,7.805,6.752,9.759
            C9.887,36.148,11.03,36.111,12.482,35.44z"/>
        <radialGradient id="SVGID_RAB_3_" cx="27.3669" cy="28.4174" r="8.3815" gradientUnits="userSpaceOnUse">
            <stop  offset="0.2258" style="stop-color:#FFF5F5"/>
            <stop  offset="0.828" style="stop-color:#CAC4C4"/>
        </radialGradient>
        <path fill="url(#SVGID_RAB_3_)" d="M27.375,31.5c3.749,0,6.788-2.864,6.788-6.397c0-3.533-3.039-6.397-6.788-6.397
            c-3.229,0-6.023,1.909-6.71,4.756c-0.058,0.039-0.023,0.296-0.078,0.34c0,0-0.769,17.405,8.035,13.846
            c0.772-0.312-1.611-2.039-2.42-2.039c-0.535,0-0.579-2.193,0.071-4.195C26.632,31.47,27,31.5,27.375,31.5z"/>
        <radialGradient id="SVGID_RAB_4_" cx="13.3236" cy="28.9194" r="10.2532" gradientUnits="userSpaceOnUse">
            <stop  offset="0.3495" style="stop-color:#988E8E"/>
            <stop  offset="0.9892" style="stop-color:#6D6666"/>
        </radialGradient>
        <path fill="url(#SVGID_RAB_4_)" d="M15.842,35.44c0,0,2.417-3.653,0.998-9.956l0,0c-0.675-3.406-3.643-5.971-7.203-5.971
            c-4.058,0-7.348,3.333-7.348,7.443c0,4.111,3.29,7.443,7.348,7.443c0.286,0,0.567-0.018,0.844-0.05
            c-0.205,1.037-0.282,2.441,0.452,3.401c0,0,13.464,0.986,13.426,0.378C24.32,37.521,24.722,34.591,15.842,35.44z"/>
        <radialGradient id="SVGID_RAB_5_" cx="21.0537" cy="36.8065" r="2.572" gradientUnits="userSpaceOnUse">
            <stop  offset="0.0376" style="stop-color:#FFF5F5"/>
            <stop  offset="0.1505" style="stop-color:#FCF2F2"/>
            <stop  offset="0.8871" style="stop-color:#CAC4C4"/>
        </radialGradient>
        <path fill="url(#SVGID_RAB_5_)" d="M18.061,35.297c-0.201,0.673-0.312,1.392-0.312,2.139c0,0.249,0.013,0.495,0.036,0.737
            c3.319,0.166,6.592,0.255,6.573-0.045C24.324,37.576,24.652,35.109,18.061,35.297z"/>
    </g>
    <g>
        <radialGradient id="SVGID_RAB_6_" cx="25.1895" cy="7.3561" r="4.3136" gradientUnits="userSpaceOnUse">
            <stop  offset="0.1022" style="stop-color:#988E8E"/>
            <stop  offset="0.9892" style="stop-color:#6D6666"/>
        </radialGradient>
        <path fill="url(#SVGID_RAB_6_)" d="M24.162,13.014c0,0-2.846-6.456,0.255-11.34c0,0,2.931,1.826,2.973,4.417
            c0.042,2.591,0,3.525,0,5.394S24.162,13.014,24.162,13.014z"/>
        <radialGradient id="SVGID_RAB_7_" cx="35.0858" cy="7.3561" r="4.3136" gradientUnits="userSpaceOnUse">
            <stop  offset="0.1022" style="stop-color:#988E8E"/>
            <stop  offset="0.9892" style="stop-color:#6D6666"/>
        </radialGradient>
        <path fill="url(#SVGID_RAB_7_)" d="M36.113,13.014c0,0,2.846-6.456-0.255-11.34c0,0-2.931,1.826-2.973,4.417s0,3.525,0,5.394
            S36.113,13.014,36.113,13.014z"/>
        <linearGradient id="SVGID_RAB_8_" gradientUnits="userSpaceOnUse" x1="25.2804" y1="4.1798" x2="25.2804" y2="11.278">
            <stop  offset="0.1237" style="stop-color:#F4C9C9"/>
            <stop  offset="0.4731" style="stop-color:#F4C9C9"/>
            <stop  offset="0.828" style="stop-color:#D6AAAA"/>
        </linearGradient>
        <path fill="url(#SVGID_RAB_8_)" d="M24.854,11.263c0,0-1.182-4.032,0.106-7.083c0,0,1.217,1.141,1.235,2.759
            c0.018,1.618,0,2.202,0,3.369S24.854,11.263,24.854,11.263z"/>
        <linearGradient id="SVGID_RAB_9_" gradientUnits="userSpaceOnUse" x1="35.0858" y1="4.1798" x2="35.0858" y2="11.278">
            <stop  offset="0.1237" style="stop-color:#F4C9C9"/>
            <stop  offset="0.4731" style="stop-color:#F4C9C9"/>
            <stop  offset="0.828" style="stop-color:#D6AAAA"/>
        </linearGradient>
        <path fill="url(#SVGID_RAB_9_)" d="M35.512,11.263c0,0,1.182-4.032-0.106-7.083c0,0-1.217,1.141-1.235,2.759
            c-0.018,1.618,0,2.202,0,3.369S35.512,11.263,35.512,11.263z"/>
        <radialGradient id="SVGID_RAB_10_" cx="36.241" cy="5.3243" r="3.4037" gradientUnits="userSpaceOnUse">
            <stop  offset="0.1022" style="stop-color:#988E8E"/>
            <stop  offset="0.9892" style="stop-color:#6D6666"/>
        </radialGradient>
        <path fill="url(#SVGID_RAB_10_)" d="M38.048,3.768c-0.887-0.83-1.515-1.4-2.077-1.903c-0.058-0.052-0.115-0.103-0.172-0.154
            c-0.345,0.229-2.165,1.506-2.74,3.335c1.044,1.225,2.441,2.483,4.19,3.257c0.645,0.285,1.337,0.506,2.077,0.633
            C39.327,8.937,39.94,5.538,38.048,3.768z"/>
        
            <radialGradient id="SVGID_RAB_11_" cx="30.1685" cy="17.1978" r="8.9457" gradientTransform="matrix(1 0 0 2 0 -17.1978)" gradientUnits="userSpaceOnUse">
            <stop  offset="0.586" style="stop-color:#988E8E"/>
            <stop  offset="0.9892" style="stop-color:#6D6666"/>
        </radialGradient>
        <path fill="url(#SVGID_RAB_11_)" d="M36.771,14.099c-0.339-2.899-3.166-5.162-6.603-5.162c-3.437,0-6.263,2.263-6.603,5.162
            c-1.783,1.001-2.979,2.842-2.979,4.947c0,3.175,2.718,5.749,6.07,5.749c0.388,0,0.767-0.039,1.135-0.105
            c0.642,0.475,1.506,0.768,2.459,0.768c0.936,0,1.786-0.283,2.424-0.744c0.327,0.052,0.662,0.08,1.005,0.08
            c3.353,0,6.07-2.574,6.07-5.749C39.75,16.941,38.554,15.1,36.771,14.099z"/>
        <rect x="28.622" y="22.597" fill="#FFFFFF" width="2.888" height="3.212"/>
        <radialGradient id="SVGID_RAB_12_" cx="30.1236" cy="18.7066" r="7.2569" gradientUnits="userSpaceOnUse">
            <stop  offset="0.3925" style="stop-color:#FFF5F5"/>
            <stop  offset="0.9032" style="stop-color:#CAC4C4"/>
        </radialGradient>
        <path fill="url(#SVGID_RAB_12_)" d="M38.385,22.678c-0.459-0.735-1.458-1.762-3.499-1.905c-3.228-0.227-4.522-2.525-3.794-5.437
            c0.34-1.359-0.055-1.924-0.941-2.718h-0.124c-0.886,0.794-1.281,1.359-0.941,2.718c0.728,2.912-0.566,5.21-3.794,5.437
            c-1.943,0.136-2.942,1.073-3.429,1.797c1.111,1.354,2.845,2.226,4.795,2.226c1.309,0,2.52-0.394,3.511-1.061
            c0.991,0.667,2.202,1.061,3.511,1.061C35.578,24.795,37.272,23.97,38.385,22.678z"/>
        <ellipse fill="#0A0A0A" cx="26.442" cy="18.005" rx="1.253" ry="1.848"/>
        <ellipse fill="#0A0A0A" cx="33.833" cy="18.005" rx="1.253" ry="1.848"/>
        <g>
            
                <radialGradient id="SVGID_RAB_13_" cx="30.1266" cy="22.0807" r="1.3281" gradientTransform="matrix(1 0 0 0.9 0 2.2081)" gradientUnits="userSpaceOnUse">
                <stop  offset="0.1237" style="stop-color:#F4C9C9"/>
                <stop  offset="0.6183" style="stop-color:#F4C9C9"/>
                <stop  offset="1" style="stop-color:#D6AAAA"/>
            </radialGradient>
            <path fill="url(#SVGID_RAB_13_)" d="M30.127,20.839c1.256,0,1.77,0.791,1.142,1.758s-1.655,0.967-2.283,0
                S28.871,20.839,30.127,20.839z"/>
        </g>
        <circle fill="#FFFFFF" cx="26.202" cy="16.846" r="0.237"/>
        <circle fill="#FFFFFF" cx="33.596" cy="16.846" r="0.237"/>
    </g>
</g>
    <g id="goodThing">
        <linearGradient id="SVGID_EGG_1_" gradientUnits="userSpaceOnUse" x1="9.4984" y1="24.375" x2="30.5016" y2="24.375">
        <stop  offset="0" style="stop-color:#F9D4E3"/>
        <stop  offset="0.9946" style="stop-color:#EFB1CD"/>
    </linearGradient>
    <path fill="url(#SVGID_EGG_1_)" d="M30.502,26.313C30.502,33.32,25.8,39,20,39S9.498,33.32,9.498,26.313S14.2,9.75,20,9.75
        S30.502,19.305,30.502,26.313z"/>
    <path fill="#F9F4CD" d="M20,9.75c-5.8,0-10.502,9.555-10.502,16.563c0,2.192,0.46,4.253,1.27,6.052
        c3.043,0.971,6.369,1.51,9.858,1.51c2.936,0,5.756-0.385,8.391-1.083c0.937-1.898,1.484-4.109,1.484-6.479
        C30.502,19.305,25.8,9.75,20,9.75z"/>
    <linearGradient id="SVGID_EGG_2_" gradientUnits="userSpaceOnUse" x1="9.4984" y1="21.3125" x2="30.5016" y2="21.3125">
        <stop  offset="0" style="stop-color:#CDFCF7"/>
        <stop  offset="1" style="stop-color:#90D3C9"/>
    </linearGradient>
    <path fill="url(#SVGID_EGG_2_)" d="M20,9.75c-5.8,0-10.502,9.555-10.502,16.563c0,1.973,0.389,3.829,1.054,5.495
        c3.376,0.687,7.071,1.068,10.947,1.068c2.669,0,5.249-0.183,7.702-0.519c0.814-1.8,1.3-3.848,1.3-6.044
        C30.502,19.305,25.8,9.75,20,9.75z"/>
    <path fill="#F9F4CD" d="M20,9.75c-5.8,0-10.502,9.555-10.502,16.563c0,0.193,0.021,0.379,0.028,0.569
        c3.38,0.954,7.19,1.493,11.224,1.493c3.438,0,6.713-0.391,9.699-1.096c0.021-0.321,0.053-0.638,0.053-0.966
        C30.502,19.305,25.8,9.75,20,9.75z"/>
    <linearGradient id="SVGID_EGG_3_" gradientUnits="userSpaceOnUse" x1="9.5114" y1="18.6875" x2="30.5016" y2="18.6875">
        <stop  offset="0" style="stop-color:#F9D4E3"/>
        <stop  offset="0.9946" style="stop-color:#EFB1CD"/>
    </linearGradient>
    <path fill="url(#SVGID_EGG_3_)" d="M20,9.75c-5.712,0-10.35,9.265-10.489,16.239c3.319,1.042,7.127,1.636,11.178,1.636
        c3.505,0,6.826-0.447,9.809-1.242c0-0.024,0.004-0.047,0.004-0.071C30.502,19.305,25.8,9.75,20,9.75z"/>
    </g>
    <g id="portal">
        <ellipse ry="17.5" rx="6.5" id="svg_2" cy="20" cx="10" stroke-width="4.5" stroke="#ff0000" fill="#ffffff"/>
    </g>
  </defs>

  
  <rect width="100%" height="100%" style="fill:url(#background_pattern);stroke:orange;stroke-width:4" />

  <rect x="20" y="20" width="600" height="560" style="fill:black;stroke:red;stroke-width:5" />
	
	<g id="start">
        <rect x="0" y="0" width="800" height="600" fill="white"/>
		
	 <g id="button">     
		<g onclick="top.gameStart()" transform="translate(340, 540)">
			<rect x="30" y="0" width="60" height="40" style="fill:none;stroke:purple;stroke-width:2" />
			<text x="60" y="28" style="fill:black;font-size:25px;text-anchor:middle">Start</text>
		</g>
	</g>
        <text x="0" y="175" style="font-size: 50px; text-anchor: middle; font-family: arial">
        	<tspan x="400" fill="orange">Easter Eggs Collector</tspan>
        </text>
        <text x="0" y="225" style="font-size: 25px; text-anchor: middle; font-family: arial" fill="pink">
            <tspan x="400" dy="50">You are a rabbit.</tspan>
            <tspan x="400" dy="25">You need to protect the Easter Eggs from the wolves!</tspan>
            <tspan x="400" dy="25">Be careful!</tspan>
            <tspan x="400" dy="25">Lai Ka Wai 20187775</tspan>
        </text>
        <text x="400" y="400" style="fill:#007FFF; stroke=#000000; font-size: 25px; text-anchor: middle; font-family: arial">
            Instruction
        	<tspan style="font-size: 18px" x="400" dy="20">Left: N</tspan>
        	<tspan style="font-size: 18px" x="400" dy="20">Right: M</tspan>
        	<tspan style="font-size: 18px" x="400" dy="20">Jump: Z</tspan>
        	<tspan style="font-size: 18px" x="400" dy="20">Shoot: Spacebar</tspan>
        	<tspan style="font-size: 15px" x="400" dy="20">Cheat Mode: C</tspan>
            <tspan style="font-size: 15px" x="400" dy="20">Normal Mode: V</tspan>
		</text>
    </g>  

	<g id="game_area" style="clip-path: url(#effect_clip)">  
        <rect width="100%" height="100%" style="fill:url(#background_pattern);stroke:blue;stroke-width:2" />
  		<rect x="20" y="20" width="600" height="560" style="fill:black;stroke:blue;stroke-width:2" />
  	<g transform="translate(640, 30)">
		<text x="70" y="0" style="fill:orange;font-size:25px;font-weight:bold;text-anchor:middle">Time Left:</text>
		<rect x="0" y="10" width="140" height="35" style="fill:white"></rect>
		<text id="time_left" x="70" y="36" style="fill:orange;font-size:25px;text-anchor:middle">150</text>
	</g>
  	<g transform="translate(640, 120)">
		<text x="70" y="0" style="fill:orange;font-size:25px;font-weight:bold;text-anchor:middle">Score:</text>
		<rect x="0" y="10" width="140" height="35" style="fill:white"></rect>
		<text id="score" x="70" y="36" style="fill:orange;font-size:25px;text-anchor:middle">0</text>
	</g>
	<g transform="translate(640, 210)">
		<text x="70" y="0" style="fill:orange;font-size:25px;font-weight:bold;text-anchor:middle">Level:</text>
		<rect x="0" y="10" width="140" height="35" style="fill:white"></rect>
		<text id="level" x="70" y="36" style="fill:orange;font-size:25px;text-anchor:middle">1</text>
	</g>
	<g transform="translate(640, 300)">
		<text x="70" y="0" style="fill:orange;font-size:25px;font-weight:bold;text-anchor:middle">Bullets:</text>
		<rect x="0" y="10" width="140" height="35" style="fill:white"></rect>
		<text id="numBull" x="70" y="36" style="visibility:visible;fill:orange;font-size:25px;text-anchor:middle">8</text>
	</g>
    <g transform="translate(640, 390)">
        <text x="70" y="0" style="fill:orange;font-size:25px;font-weight:bold;text-anchor:middle">Cheat Mode:</text>
        <rect x="0" y="10" width="140" height="35" style="fill:white"></rect>
        <text id="cheatMode" x="70" y="36" style="visibility:visible;fill:orange;font-size:25px;text-anchor:middle">Off</text>
    </g>
  <g style="clip-path:url(#gameareaclip)">
    <g transform="translate(20,20)">
      <g id="gamearea" transform="translate(0,0)" width="600" height="560">
        <rect x="0" y="0" width="600" height="560" style="fill:white" />

        <g id="platforms">

			<rect style="fill:lightblue" width="20" height="20" x="160" y="40"/>
			
			<rect style="fill:lightblue" width="200" height="20" x="0" y="60"/>
			<rect style="fill:lightblue" width="60" height="20" x="380" y="60"/>

            <rect style="fill:lightblue" width="20" height="40" x="40" y="80"/>
			
            <rect style="fill:lightblue" width="100" height="20" x="40" y="120"/>

            <rect style="fill:lightblue" width="40" height="20" x="220" y="140"/>

            <rect style="fill:lightblue" width="120" height="20" x="180" y="160"/>

            <rect style="fill:lightblue" width="20" height="40" x="0" y="180"/>
            <rect style="fill:lightblue" width="20" height="20" x="100" y="180"/>
            <rect style="fill:lightblue" width="20" height="40" x="380" y="180"/>

            <rect style="fill:lightblue" width="40" height="20" x="80" y="200"/>

			<rect style="fill:lightblue" width="80" height="20" x="80" y="220"/>
			<rect style="fill:lightblue" width="80" height="20" x="360" y="220"/>

            <rect style="fill:lightblue" width="40" height="20" x="560" y="280"/>

            <rect style="fill:lightblue" width="100" height="20" x="120" y="300"/>
            <rect style="fill:lightblue" width="40" height="20" x="280" y="300"/>

            <rect style="fill:lightblue" width="40" height="20" x="0" y="320"/>
			<rect style="fill:lightblue" width="20" height="80" x="180" y="320"/>
            <rect style="fill:lightblue" width="60" height="20" x="280" y="320"/>
            <rect style="fill:lightblue" width="20" height="40" x="380" y="320"/>
			
            <rect style="fill:lightblue" width="60" height="20" x="0" y="340"/>
            <rect style="fill:lightblue" width="20" height="20" x="320" y="340"/>

            <rect style="fill:lightblue" width="120" height="20" x="0" y="360"/>
            <rect style="fill:lightblue" width="20" height="20" x="320" y="360"/>
			<rect style="fill:lightblue" width="60" height="20" x="380" y="360"/>

            <rect style="fill:lightblue" width="100" height="20" x="0" y="380"/>
			<rect style="fill:lightblue" width="100" height="20" x="380" y="380"/>
            <rect style="fill:lightblue" width="20" height="20" x="580" y="380"/>

            <rect style="fill:lightblue" width="80" height="20" x="180" y="400"/>
            <rect style="fill:lightblue" width="40" height="20" x="560" y="400"/>

            <rect style="fill:lightblue" width="180" height="20" x="160" y="420"/>
            <rect style="fill:lightblue" width="60" height="20" x="540" y="420"/>

            <rect style="fill:lightblue" width="100" height="20" x="140" y="440"/>
            <rect style="fill:lightblue" width="20" height="20" x="440" y="440"/>
            <rect style="fill:lightblue" width="80" height="20" x="520" y="440"/>

            <rect style="fill:lightblue" width="60" height="20" x="120" y="460"/>
            <rect style="fill:lightblue" width="80" height="20" x="400" y="460"/>

            <rect style="fill:lightblue" width="40" height="20" x="0" y="480"/>
			<rect style="fill:lightblue" width="20" height="60" x="140" y="480"/>
            <rect style="fill:lightblue" width="60" height="20" x="380" y="480"/>

            <rect style="fill:lightblue" width="60" height="20" x="0" y="500"/>
            <rect style="fill:lightblue" width="20" height="20" x="260" y="500"/>

            <rect style="fill:lightblue" width="80" height="20" x="0" y="520"/>
            <rect style="fill:lightblue" width="80" height="20" x="240" y="520"/>
            <rect style="fill:lightblue" width="20" height="20" x="520" y="520"/>

            <rect style="fill:lightblue" width="600" height="20" x="0" y="540"/>
			
			<rect id="verticalPlatform" x="500" y="180" minY="80" maxY ="180" width="60" height="20" direction="3" style="fill:red;"/>
			
        </g>

        <use id="theExit" xlink:href="#exit" x="20" y="10"/>
        <use id="portal1" xlink:href="#portal" x="0" y="440"/>
        <use id="portal2" xlink:href="#portal" x="580" y="500"/>
        <g id="monsters"/>
        <g id="bullets"/>
        <g id="monsterBullets"/>

		<text id="player_name" x="20" y="-5" style="fill:black;font-size:16px;text-anchor:middle"> </text>
        <g id="player">
            <use xlink:href="#player_character" />
        </g>
        <g id="goodThings"/>
      </g>
	  </g>
    
        <!--add your highscore table here-->
		<g id="highscoretable" transform="translate(40,40)" style="visibility:hidden">
			<rect width="520" height="300" style="fill:white;stroke:red;stroke-width:2"/>
			<text x="260" y="40" style="fill:red;font-size:30px;font-weight:bold;text-anchor:middle">High Score Table</text>
			<text id="highscoretext" y="45" style="font-size: 20px;font-weight:bold"/>

            <g onclick="top.startAgain()" transform="translate(180,340)">
            <rect x="3" y="3" width="180" height="60" style="fill:black;stroke:black;stroke-width:2;opacity:0.65" />
            <rect x="0" y="0" width="180" height="60" style="fill:white;stroke:red;stroke-width:2" />
            <text x="95" y="38" style="fill:red;font-size:25px;text-anchor:middle;font-family:Century Gothic;">Start Again?</text>
        </g>
		</g>
		
    </g>
  </g>
</svg>
